# Blender v3.2.0 OBJ File: 'Background.blend'
# www.blender.org
mtllib Background.mtl
o Cube
v 22.000000 1.000000 -14.000000
v 20.000000 1.000000 -12.000001
v 22.000000 -1.000000 -14.000000
v 20.000000 0.000000 -12.000001
v 22.000000 1.000000 14.000000
v 20.000000 1.000000 12.000001
v 22.000000 -1.000000 14.000000
v 20.000000 0.000000 12.000001
v -22.000000 1.000000 -14.000000
v -20.000000 1.000000 -12.000001
v -22.000000 -1.000000 -14.000000
v -20.000000 0.000000 -12.000001
v -22.000000 1.000000 14.000000
v -20.000000 1.000000 12.000001
v -22.000000 -1.000000 14.000000
v -20.000000 0.000000 12.000001
vt 0.000000 0.333333
vt 0.000000 0.000000
vt 0.015152 0.023809
vt 0.015152 0.309524
vt 0.333333 0.000000
vt 0.333333 0.333333
vt 0.318182 0.309524
vt 0.318182 0.023810
vt 0.333333 0.333333
vt 0.333333 0.666667
vt 0.000000 0.666667
vt 0.000000 0.333333
vt 0.666667 0.000000
vt 0.666667 0.333333
vt 0.333333 0.333333
vt 0.333333 0.000000
vt 0.333333 0.333333
vt 0.666667 0.333333
vt 0.666667 0.666667
vt 0.333333 0.666667
vt 0.333333 0.666667
vt 0.333333 1.000000
vt 0.000000 1.000000
vt 0.000000 0.666667
vt 1.000000 0.000000
vt 1.000000 0.333333
vt 0.666667 0.333333
vt 0.666667 0.000000
vt 0.500000 0.666667
vt 0.500000 0.969697
vt 0.333333 0.969697
vt 0.333333 0.666667
vt 1.000000 0.636364
vt 1.000000 0.922078
vt 0.833333 0.922078
vt 0.833333 0.636364
vt 0.952381 0.636364
vt 0.666667 0.636364
vt 0.666667 0.333333
vt 0.952381 0.333333
vt 0.500000 0.952381
vt 0.500000 0.666667
vt 0.666667 0.666667
vt 0.666667 0.952381
vt 0.666667 0.636364
vt 0.833333 0.636364
vt 0.833333 0.939394
vt 0.666667 0.939394
vn 0.0000 1.0000 0.0000
vn 0.0000 0.0000 1.0000
vn -1.0000 0.0000 0.0000
vn 0.0000 -1.0000 0.0000
vn 1.0000 0.0000 0.0000
vn 0.0000 0.0000 -1.0000
usemtl Material
s off
f 5/1/1 1/2/1 2/3/1 6/4/1
f 2/3/1 1/2/1 9/5/1 13/6/1 5/1/1 6/4/1 14/7/1 10/8/1
f 7/9/2 5/10/2 13/11/2 15/12/2
f 15/13/3 13/14/3 9/15/3 11/16/3
f 11/17/4 3/18/4 7/19/4 15/20/4
f 3/21/5 1/22/5 5/23/5 7/24/5
f 11/25/6 9/26/6 1/27/6 3/28/6
f 8/29/6 16/30/6 14/31/6 6/32/6
f 16/33/5 12/34/5 10/35/5 14/36/5
f 12/37/1 16/38/1 8/39/1 4/40/1
f 6/41/3 2/42/3 4/43/3 8/44/3
f 10/45/2 12/46/2 4/47/2 2/48/2
