# Blender v3.2.0 OBJ File: 'block2.blend'
# www.blender.org
mtllib block2.mtl
o 立方体
v 0.511879 0.496543 0.438917
v -0.511879 0.496543 0.438917
v 0.511879 -0.496543 0.438917
v -0.511879 -0.496543 0.438917
v 0.412088 0.396753 -0.438917
v 0.511879 0.496543 -0.339127
v 0.450276 0.434941 -0.431321
v 0.482651 0.467315 -0.409689
v 0.504282 0.488947 -0.377315
v -0.412088 0.396753 -0.438917
v -0.511879 0.496543 -0.339127
v -0.450276 0.434941 -0.431321
v -0.482651 0.467315 -0.409689
v -0.504282 0.488947 -0.377315
v 0.412088 -0.396753 -0.438917
v 0.511879 -0.496543 -0.339127
v 0.450276 -0.434941 -0.431321
v 0.482651 -0.467315 -0.409689
v 0.504282 -0.488947 -0.377315
v -0.412088 -0.396753 -0.438917
v -0.511879 -0.496543 -0.339127
v -0.450276 -0.434941 -0.431321
v -0.482651 -0.467315 -0.409689
v -0.504282 -0.488947 -0.377315
vt 0.650121 0.524369
vt 0.849879 0.524369
vt 0.849879 0.725631
vt 0.650121 0.725631
vt 0.375000 0.500000
vt 0.596581 0.500000
vt 0.596581 0.750000
vt 0.375000 0.750000
vt 0.375000 0.000000
vt 0.596581 0.000000
vt 0.596581 0.250000
vt 0.375000 0.250000
vt 0.125000 0.500000
vt 0.125000 0.750000
vt 0.859492 0.515043
vt 0.859492 0.734957
vt 0.875000 0.507137
vt 0.875000 0.742863
vt 0.625000 0.007137
vt 0.625000 0.242863
vt 0.607456 0.248145
vt 0.607456 0.001855
vt 0.640508 0.515043
vt 0.632358 0.500000
vt 0.867642 0.500000
vt 0.625000 0.257358
vt 0.625000 0.492642
vt 0.607456 0.498088
vt 0.607456 0.251912
vt 0.640508 0.734957
vt 0.625000 0.742863
vt 0.625000 0.507137
vt 0.607456 0.748145
vt 0.607456 0.501855
vt 0.867642 0.750000
vt 0.632358 0.750000
vt 0.625000 0.757358
vt 0.625000 0.992642
vt 0.607456 0.998088
vt 0.607456 0.751912
vt 0.596581 1.000000
vt 0.375000 1.000000
vn 0.0000 -0.0000 -1.0000
vn 0.0000 -1.0000 0.0000
vn -0.0000 1.0000 0.0000
vn 0.0000 0.0000 1.0000
vn -1.0000 0.0000 0.0000
vn 0.0000 0.1951 -0.9808
vn -0.0000 0.5556 -0.8315
vn -0.0000 0.8315 -0.5556
vn -0.0000 0.9808 -0.1951
vn -0.1951 -0.0000 -0.9808
vn -0.5556 -0.0000 -0.8315
vn -0.8315 -0.0000 -0.5556
vn -0.9808 -0.0000 -0.1951
vn -0.0000 -0.1951 -0.9808
vn -0.0000 -0.5556 -0.8315
vn 0.0000 -0.8315 -0.5556
vn 0.0000 -0.9808 -0.1951
vn 0.1951 -0.0000 -0.9808
vn 0.5556 -0.0000 -0.8315
vn 0.8315 -0.0000 -0.5556
vn 0.9808 -0.0000 -0.1951
vn 1.0000 0.0000 0.0000
usemtl None
s off
f 20/1/1 10/2/1 5/3/1 15/4/1
f 4/5/2 21/6/2 16/7/2 3/8/2
f 1/9/3 6/10/3 11/11/3 2/12/3
f 2/13/4 4/5/4 3/8/4 1/14/4
f 2/12/5 11/11/5 21/6/5 4/5/5
f 5/3/6 10/2/6 12/15/6 7/16/6
f 7/16/7 12/15/7 13/17/7 8/18/7
f 8/19/8 13/20/8 14/21/8 9/22/8
f 9/22/9 14/21/9 11/11/9 6/10/9
f 10/2/10 20/1/10 22/23/10 12/15/10
f 12/15/11 22/23/11 23/24/11 13/25/11
f 13/26/12 23/27/12 24/28/12 14/29/12
f 14/29/13 24/28/13 21/6/13 11/11/13
f 20/1/14 15/4/14 17/30/14 22/23/14
f 22/23/15 17/30/15 18/31/15 23/32/15
f 23/32/16 18/31/16 19/33/16 24/34/16
f 24/34/17 19/33/17 16/7/17 21/6/17
f 15/4/18 5/3/18 7/16/18 17/30/18
f 17/30/19 7/16/19 8/35/19 18/36/19
f 18/37/20 8/38/20 9/39/20 19/40/20
f 19/40/21 9/39/21 6/41/21 16/7/21
f 3/8/22 16/7/22 6/41/22 1/42/22
